; OM File Header - Saved 2023/05/05 21:57:14
; (7.02 :patc (om-make-point 48 335) (om-make-point 50 50) (om-make-point 1168 650) "" 183 0 "2023/05/05 21:37:45" "2023/05/05 21:40:39")
; End File Header
(in-package :om)(load-lib-for (quote ("OMLindberg")))(setf *om-current-persistent* (om-load-patch1 "05a-chord-progressions-freeze" (quote ((let ((box (om-load-boxcomment "comment 2" (om-make-point 240 29) (quote "LINDBERG'S TWINE MAIN CHORDS") "" (om-make-point 572 9) nil (om-make-color 0 0 0) (om-make-font "Verdana" 12 :family "Verdana" :style (quote (:plain)) :mode (quote nil))))) (when (fboundp (quote set-active)) (set-active box nil)) box) (let ((box (om-load-boxcall (quote genfun) "ML-HEXACHORDS 3" (quote omlindberg::ml-hexachords) (quote ((om-load-inputfun (quote input-funbox) "list or list-of-lists" "MIDICS" (list 4000 4700 5400 5800 6100 6500 6800 7200 7500 7900 8600 9300)))) (om-make-point 36 445) nil nil nil nil 1))) (when (fboundp (quote set-active)) (set-active box nil)) box) (let ((box (om-load-boxcall (quote genfun) "ML-HEXACHORDS 2" (quote omlindberg::ml-hexachords) (quote ((om-load-inputfun (quote input-funbox) "list or list-of-lists" "MIDICS" (list 4000 4700 5400 5800 6100 6500 6800 7200 7500 7900 8600 9300)))) (om-make-point 776 254) nil nil nil nil 1))) (when (fboundp (quote set-active)) (set-active box nil)) box) (let ((box (om-load-boxcomment "comment" (om-make-point 253 33) (quote "COMPLETE CYCLE WITH FROZEN NOTES") "" (om-make-point 622 350) nil (om-make-color 0 0 0) (om-make-font "Verdana" 12 :family "Verdana" :style (quote (:plain)) :mode (quote nil))))) (when (fboundp (quote set-active)) (set-active box nil)) box) (let ((box (om-load-boxcomment "comment" (om-make-point 120 31) (quote "FROZEN NOTES ") "" (om-make-point 254 541) nil (om-make-color 0 0 0) (om-make-font "Verdana" 12 :family "Verdana" :style (quote (:plain)) :mode (quote nil))))) (when (fboundp (quote set-active)) (set-active box nil)) box) (let ((box (om-load-boxcomment "comment" (om-make-point 104 27) (quote "THIRD CHORD") "" (om-make-point 66 235) nil (om-make-color 0 0 0) (om-make-font "Verdana" 12 :family "Verdana" :style (quote (:plain)) :mode (quote nil))))) (when (fboundp (quote set-active)) (set-active box nil)) box) (let ((box (om-load-editor-box1 "CHORD-SEQ 4" (quote chord-seq) (quote ((om-load-inputfun (quote input-funbox) "object" "self" nil) (om-load-inputfun (quote input-funbox) "pitches (mc): list or list of lists" "lmidic" (list 6000)) (om-load-inputfun (quote input-funbox) "onsets (ms): list" "lonset" (list 0 300)) (om-load-inputfun (quote input-funbox) "durations (ms): list or list of lists" "ldur" (list 1000)) (om-load-inputfun (quote input-funbox) "velocities (0-127): list or list of lists" "lvel" (list 100)) (om-load-inputfun (quote input-funbox) "offsets (ms): list or list of lists" "loffset" (list 0)) (om-load-inputfun (quote input-funbox) "MIDI channels (1-16): list or list of lists" "lchan" (list 1)) (om-load-inputfun (quote input-funbox) "relative chords duration (0-100)" "legato" 0))) (om-make-point 241 448) (om-make-point 144 85) (let ((newobj (when (find-class (quote chord-seq) nil) (make-instance (quote chord-seq) :lmidic (quote ((6000) (6200) (6600) (6900) (7100) (7500))) :lonset (quote (0 300 600 900 1200 1500 2500)) :ldur (quote ((1000) (1000) (1000) (1000) (1000) (1000))) :lvel (quote ((100) (100) (100) (100) (100) (100))) :loffset (quote ((0) (0) (0) (0) (0) (0))) :lchan (quote ((1) (1) (1) (1) (1) (1))) :legato 0)))) (load-port-info newobj (quote ((0) (0) (0) (0) (0) (0)))) (init-mus-color newobj (quote nil)) (set-extra-pairs newobj (quote nil)) (set-patch-pairs newobj (quote ((nil (om-load-patch-abs1 "patch" (quote nil) (quote nil) 7.02 nil "" (om-make-point 200 200) (om-make-point 400 500)))))) (set-name newobj nil) (set-tonalite newobj nil) newobj) "x" nil (pairlis (quote (scale show-stems cursor-mode obj-mode score-mode winpos winsize mode grillestep notechancolor? zoom player inport outport deltapict cmnpref staff fontsize approx)) (list nil (quote t) (quote :normal) 1 0 (om-make-point 400 23) (om-make-point 535 273) 0 1000 nil 1 (quote :osc-scoreplayer) nil nil (om-make-point 0 0) (let ((newobj (make-instance (quote edition-values)))) (setf (paper-size newobj) (om-make-point 600 800)) (setf (top-margin newobj) 2) (setf (left-margin newobj) 1) (setf (right-margin newobj) 1) (setf (bottom-margin newobj) 1) (setf (orientation newobj) nil) (setf (scale newobj) nil) (setf (system-space newobj) (quote (1))) (setf (system-color newobj) (quote nil)) (setf (line-space newobj) 1) (setf (title newobj) nil) (setf (show-title? newobj) nil) (setf (show-page? newobj) nil) (setf (sheet-id newobj) nil) (setf (page-mode newobj) nil) newobj) (quote g) 24 2)) t nil nil nil (quote nil)))) (when (fboundp (quote set-active)) (set-active box nil)) box) (let ((box (om-load-boxcall (quote genfun) "POSN-MATCH" (quote posn-match) (quote ((om-load-inputfun (quote input-funbox) "a list" "LIST" (list 10 20 30 40 50 60 70 80 90)) (om-load-inputfun (quote input-funbox) "a list positions" "POSITIONS" (list (list 0 1) 4 (list 6))))) (om-make-point 281 358) nil nil nil nil 1))) (when (fboundp (quote set-active)) (set-active box nil)) box) (let ((box (om-load-boxcomment "comment" (om-make-point 83 30) (quote "POSITIONS") "" (om-make-point 392 235) nil (om-make-color 0 0 0) (om-make-font "Verdana" 12 :family "Verdana" :style (quote (:plain)) :mode (quote nil))))) (when (fboundp (quote set-active)) (set-active box nil)) box) (let ((box (om-load-boxcall (quote bastype) "aux" (quote t) (quote nil) (om-make-point 387 267) (om-make-point 91 30) (list 0 1 2 3 4 5) "(0 1 2 3 4 5)" nil))) (when (fboundp (quote set-active)) (set-active box nil)) box) (let ((box (om-load-editor-box1 "CHORD-SEQ 3" (quote chord-seq) (quote ((om-load-inputfun (quote input-funbox) "object" "self" nil) (om-load-inputfun (quote input-funbox) "pitches (mc): list or list of lists" "lmidic" (list 6000)) (om-load-inputfun (quote input-funbox) "onsets (ms): list" "lonset" (list 0 1000)) (om-load-inputfun (quote input-funbox) "durations (ms): list or list of lists" "ldur" (list 1000)) (om-load-inputfun (quote input-funbox) "velocities (0-127): list or list of lists" "lvel" (list 100)) (om-load-inputfun (quote input-funbox) "offsets (ms): list or list of lists" "loffset" (list 0)) (om-load-inputfun (quote input-funbox) "MIDI channels (1-16): list or list of lists" "lchan" (list 1)) (om-load-inputfun (quote input-funbox) "relative chords duration (0-100)" "legato" 0))) (om-make-point 542 398) (om-make-point 415 181) (let ((newobj (when (find-class (quote chord-seq) nil) (make-instance (quote chord-seq) :lmidic (quote ((4900 5200 5800 6000 6200 6600 6700 6900 7100 7500 8000 8900) (2800 3700 4100 4600 5600 6000 6200 6600 6700 6900 7100 7500) (6000 6200 6600 6900 7100 7500 7600 8000 8200 8500 8900 9100) (6000 6200 6600 6900 7100 7500 8000 8800 8900 9100 9700 10600) (4900 5600 6000 6200 6500 6600 6700 6900 7100 7500 7600 8200) (4100 5200 5500 5600 5800 6000 6100 6200 6600 6900 7100 7500) (2900 4300 5600 6000 6100 6200 6400 6600 6900 7000 7100 7500) (3700 4600 5600 6000 6200 6500 6600 6900 7100 7500 7900 8800))) :lonset (quote (0 1000 2000 3000 4000 5000 6000 7000 8000)) :ldur (quote ((1000 1000 1000 1000 1000 1000 1000 1000 1000 1000 1000 1000) (1000 1000 1000 1000 1000 1000 1000 1000 1000 1000 1000 1000) (1000 1000 1000 1000 1000 1000 1000 1000 1000 1000 1000 1000) (1000 1000 1000 1000 1000 1000 1000 1000 1000 1000 1000 1000) (1000 1000 1000 1000 1000 1000 1000 1000 1000 1000 1000 1000) (1000 1000 1000 1000 1000 1000 1000 1000 1000 1000 1000 1000) (1000 1000 1000 1000 1000 1000 1000 1000 1000 1000 1000 1000) (1000 1000 1000 1000 1000 1000 1000 1000 1000 1000 1000 1000))) :lvel (quote ((100 100 100 100 100 100 100 100 100 100 100 100) (100 100 100 100 100 100 100 100 100 100 100 100) (100 100 100 100 100 100 100 100 100 100 100 100) (100 100 100 100 100 100 100 100 100 100 100 100) (100 100 100 100 100 100 100 100 100 100 100 100) (100 100 100 100 100 100 100 100 100 100 100 100) (100 100 100 100 100 100 100 100 100 100 100 100) (100 100 100 100 100 100 100 100 100 100 100 100))) :loffset (quote ((0 0 0 0 0 0 0 0 0 0 0 0) (0 0 0 0 0 0 0 0 0 0 0 0) (0 0 0 0 0 0 0 0 0 0 0 0) (0 0 0 0 0 0 0 0 0 0 0 0) (0 0 0 0 0 0 0 0 0 0 0 0) (0 0 0 0 0 0 0 0 0 0 0 0) (0 0 0 0 0 0 0 0 0 0 0 0) (0 0 0 0 0 0 0 0 0 0 0 0))) :lchan (quote ((1 1 1 1 1 1 1 1 1 1 1 1) (1 1 1 1 1 1 1 1 1 1 1 1) (1 1 1 1 1 1 1 1 1 1 1 1) (1 1 1 1 1 1 1 1 1 1 1 1) (1 1 1 1 1 1 1 1 1 1 1 1) (1 1 1 1 1 1 1 1 1 1 1 1) (1 1 1 1 1 1 1 1 1 1 1 1) (1 1 1 1 1 1 1 1 1 1 1 1))) :legato 0)))) (load-port-info newobj (quote ((0 0 0 0 0 0 0 0 0 0 0 0) (0 0 0 0 0 0 0 0 0 0 0 0) (0 0 0 0 0 0 0 0 0 0 0 0) (0 0 0 0 0 0 0 0 0 0 0 0) (0 0 0 0 0 0 0 0 0 0 0 0) (0 0 0 0 0 0 0 0 0 0 0 0) (0 0 0 0 0 0 0 0 0 0 0 0) (0 0 0 0 0 0 0 0 0 0 0 0)))) (init-mus-color newobj (quote nil)) (set-extra-pairs newobj (quote nil)) (set-patch-pairs newobj (quote ((nil (om-load-patch-abs1 "patch" (quote nil) (quote nil) 7.02 nil "" (om-make-point 200 200) (om-make-point 400 500)))))) (set-name newobj nil) (set-tonalite newobj nil) newobj) nil nil (pairlis (quote (approx fontsize staff cmnpref deltapict outport inport player zoom notechancolor? grillestep mode winsize winpos score-mode obj-mode cursor-mode show-stems scale)) (list 2 24 (quote ggff) (let ((newobj (make-instance (quote edition-values)))) (setf (paper-size newobj) (om-make-point 600 800)) (setf (top-margin newobj) 2) (setf (left-margin newobj) 1) (setf (right-margin newobj) 1) (setf (bottom-margin newobj) 1) (setf (orientation newobj) nil) (setf (scale newobj) nil) (setf (system-space newobj) (quote (1))) (setf (system-color newobj) (quote nil)) (setf (line-space newobj) 1) (setf (title newobj) nil) (setf (show-title? newobj) nil) (setf (show-page? newobj) nil) (setf (sheet-id newobj) nil) (setf (page-mode newobj) nil) newobj) (om-make-point 0 0) nil nil (quote :midi-player) 1 nil 1000 0 (om-make-point 647 352) (om-make-point 400 23) 0 1 (quote :normal) (quote t) nil)) t nil nil nil (quote nil)))) (when (fboundp (quote set-active)) (set-active box nil)) box) (let ((box (om-load-boxcall (quote genfun) "FREEZE" (quote omlindberg::freeze) (quote ((om-load-inputfun (quote input-funbox) "list-of-midicents" "CHORD" (list 6000 6200 6600 6900 7100 7500 7600 8000 8200 8500 8900 9100)) (om-load-inputfun (quote input-funbox) "list-of-positions" "POSITIONS" (list 0 1 2 3 4 5)) (om-load-inputfun (quote input-funbox) "list-of-lists-of-midicents" "CHORDS" (list (list 3800 4700 4900 5200 5800 6000 6700 6900 7500 7800 8000 8900) (list 2800 3600 3700 4100 4600 4700 5600 5700 6200 6600 6700 7500) (list 6000 6200 6600 6900 7100 7500 7600 8000 8200 8500 8900 9100) (list 6900 7100 7500 8000 8600 8800 8900 9100 9700 10200 10600 10800) (list 3900 4500 4900 5000 5400 5600 6500 6700 7100 7200 7600 8200) (list 3900 4100 4700 5200 5500 5600 5700 5800 6100 6600 7200 7400) (list 2100 2700 2900 3000 3500 4300 4800 5600 6100 6200 6400 7000) (list 3700 4600 5000 5400 5600 6000 6500 6900 7100 7500 7900 8800))))) (om-make-point 410 327) nil nil nil nil 1))) (when (fboundp (quote set-active)) (set-active box nil)) box) (let ((box (om-load-editor-box1 "CHORD-SEQ 2" (quote chord-seq) (quote ((om-load-inputfun (quote input-funbox) "object" "self" nil) (om-load-inputfun (quote input-funbox) "pitches (mc): list or list of lists" "lmidic" (list 6000)) (om-load-inputfun (quote input-funbox) "onsets (ms): list" "lonset" (list 0 250)) (om-load-inputfun (quote input-funbox) "durations (ms): list or list of lists" "ldur" (list 1000)) (om-load-inputfun (quote input-funbox) "velocities (0-127): list or list of lists" "lvel" (list 100)) (om-load-inputfun (quote input-funbox) "offsets (ms): list or list of lists" "loffset" (list 0)) (om-load-inputfun (quote input-funbox) "MIDI channels (1-16): list or list of lists" "lchan" (list 1)) (om-load-inputfun (quote input-funbox) "relative chords duration (0-100)" "legato" 0))) (om-make-point 21 299) (om-make-point 205 131) (let ((newobj (when (find-class (quote chord-seq) nil) (make-instance (quote chord-seq) :lmidic (quote ((6000) (6200) (6600) (6900) (7100) (7500) (7600) (8000) (8200) (8500) (8900) (9100))) :lonset (quote (0 250 500 750 1000 1250 1500 1750 2000 2250 2500 2750 3750)) :ldur (quote ((1000) (1000) (1000) (1000) (1000) (1000) (1000) (1000) (1000) (1000) (1000) (1000))) :lvel (quote ((100) (100) (100) (100) (100) (100) (100) (100) (100) (100) (100) (100))) :loffset (quote ((0) (0) (0) (0) (0) (0) (0) (0) (0) (0) (0) (0))) :lchan (quote ((1) (1) (1) (1) (1) (1) (1) (1) (1) (1) (1) (1))) :legato 0)))) (load-port-info newobj (quote ((0) (0) (0) (0) (0) (0) (0) (0) (0) (0) (0) (0)))) (init-mus-color newobj (quote nil)) (set-extra-pairs newobj (quote nil)) (set-patch-pairs newobj (quote ((nil (om-load-patch-abs1 "patch" (quote nil) (quote nil) 7.02 nil "" (om-make-point 200 200) (om-make-point 400 500)))))) (set-name newobj nil) (set-tonalite newobj nil) newobj) "x" nil (pairlis (quote (scale show-stems cursor-mode obj-mode score-mode winpos winsize mode grillestep notechancolor? zoom player inport outport deltapict cmnpref staff fontsize approx)) (list nil (quote t) (quote :normal) 1 0 (om-make-point 400 23) (om-make-point 535 273) 0 1000 nil 1 (quote :osc-scoreplayer) nil nil (om-make-point 0 0) (let ((newobj (make-instance (quote edition-values)))) (setf (paper-size newobj) (om-make-point 600 800)) (setf (top-margin newobj) 2) (setf (left-margin newobj) 1) (setf (right-margin newobj) 1) (setf (bottom-margin newobj) 1) (setf (orientation newobj) nil) (setf (scale newobj) nil) (setf (system-space newobj) (quote (1))) (setf (system-color newobj) (quote nil)) (setf (line-space newobj) 1) (setf (title newobj) nil) (setf (show-title? newobj) nil) (setf (show-page? newobj) nil) (setf (sheet-id newobj) nil) (setf (page-mode newobj) nil) newobj) (quote gg) 24 2)) t nil nil nil (quote nil)))) (when (fboundp (quote set-active)) (set-active box nil)) box) (let ((box (om-load-boxcall (quote lispfun) "THIRD" (quote third) (quote ((om-load-inputfun (quote input-funbox) "LIST" "LIST" nil))) (om-make-point 292 225) nil nil nil nil 1))) (when (fboundp (quote set-active)) (set-active box nil)) box) (let ((box (om-load-boxcomment "comment" (om-make-point 274 59) (quote "$(See Ed Martin's \"Harmonic Progression in Magnus Lindberg's Twine\" article.") "" (om-make-point 199 46) nil (om-make-color 0 0 0) (om-make-font "Verdana" 12 :family "Verdana" :style (quote (:plain)) :mode (quote nil))))) (when (fboundp (quote set-active)) (set-active box nil)) box) (let ((box (om-load-editor-box1 "CHORD-SEQ" (quote chord-seq) (quote ((om-load-inputfun (quote input-funbox) "object" "self" nil) (om-load-inputfun (quote input-funbox) "pitches (mc): list or list of lists" "lmidic" (list 6000)) (om-load-inputfun (quote input-funbox) "onsets (ms): list" "lonset" (list 0 1000)) (om-load-inputfun (quote input-funbox) "durations (ms): list or list of lists" "ldur" (list 1000)) (om-load-inputfun (quote input-funbox) "velocities (0-127): list or list of lists" "lvel" (list 100)) (om-load-inputfun (quote input-funbox) "offsets (ms): list or list of lists" "loffset" (list 0)) (om-load-inputfun (quote input-funbox) "MIDI channels (1-16): list or list of lists" "lchan" (list 1)) (om-load-inputfun (quote input-funbox) "relative chords duration (0-100)" "legato" 0))) (om-make-point 491 45) (om-make-point 417 184) (let ((newobj (when (find-class (quote chord-seq) nil) (make-instance (quote chord-seq) :lmidic (quote ((3800 4700 4900 5200 5800 6000 6700 6900 7500 7800 8000 8900) (2800 3600 3700 4100 4600 4700 5600 5700 6200 6600 6700 7500) (6000 6200 6600 6900 7100 7500 7600 8000 8200 8500 8900 9100) (6900 7100 7500 8000 8600 8800 8900 9100 9700 10200 10600 10800) (3900 4500 4900 5000 5400 5600 6500 6700 7100 7200 7600 8200) (3900 4100 4700 5200 5500 5600 5700 5800 6100 6600 7200 7400) (2100 2700 2900 3000 3500 4300 4800 5600 6100 6200 6400 7000) (3700 4600 5000 5400 5600 6000 6500 6900 7100 7500 7900 8800))) :lonset (quote (0 1000 2000 3000 4000 5000 6000 7000 8000)) :ldur (quote ((1000 1000 1000 1000 1000 1000 1000 1000 1000 1000 1000 1000) (1000 1000 1000 1000 1000 1000 1000 1000 1000 1000 1000 1000) (1000 1000 1000 1000 1000 1000 1000 1000 1000 1000 1000 1000) (1000 1000 1000 1000 1000 1000 1000 1000 1000 1000 1000 1000) (1000 1000 1000 1000 1000 1000 1000 1000 1000 1000 1000 1000) (1000 1000 1000 1000 1000 1000 1000 1000 1000 1000 1000 1000) (1000 1000 1000 1000 1000 1000 1000 1000 1000 1000 1000 1000) (1000 1000 1000 1000 1000 1000 1000 1000 1000 1000 1000 1000))) :lvel (quote ((100 100 100 100 100 100 100 100 100 100 100 100) (100 100 100 100 100 100 100 100 100 100 100 100) (100 100 100 100 100 100 100 100 100 100 100 100) (100 100 100 100 100 100 100 100 100 100 100 100) (100 100 100 100 100 100 100 100 100 100 100 100) (100 100 100 100 100 100 100 100 100 100 100 100) (100 100 100 100 100 100 100 100 100 100 100 100) (100 100 100 100 100 100 100 100 100 100 100 100))) :loffset (quote ((0 0 0 0 0 0 0 0 0 0 0 0) (0 0 0 0 0 0 0 0 0 0 0 0) (0 0 0 0 0 0 0 0 0 0 0 0) (0 0 0 0 0 0 0 0 0 0 0 0) (0 0 0 0 0 0 0 0 0 0 0 0) (0 0 0 0 0 0 0 0 0 0 0 0) (0 0 0 0 0 0 0 0 0 0 0 0) (0 0 0 0 0 0 0 0 0 0 0 0))) :lchan (quote ((1 1 1 1 1 1 1 1 1 1 1 1) (1 1 1 1 1 1 1 1 1 1 1 1) (1 1 1 1 1 1 1 1 1 1 1 1) (1 1 1 1 1 1 1 1 1 1 1 1) (1 1 1 1 1 1 1 1 1 1 1 1) (1 1 1 1 1 1 1 1 1 1 1 1) (1 1 1 1 1 1 1 1 1 1 1 1) (1 1 1 1 1 1 1 1 1 1 1 1))) :legato 0)))) (load-port-info newobj (quote ((0 0 0 0 0 0 0 0 0 0 0 0) (0 0 0 0 0 0 0 0 0 0 0 0) (0 0 0 0 0 0 0 0 0 0 0 0) (0 0 0 0 0 0 0 0 0 0 0 0) (0 0 0 0 0 0 0 0 0 0 0 0) (0 0 0 0 0 0 0 0 0 0 0 0) (0 0 0 0 0 0 0 0 0 0 0 0) (0 0 0 0 0 0 0 0 0 0 0 0)))) (init-mus-color newobj (quote nil)) (set-extra-pairs newobj (quote nil)) (set-patch-pairs newobj (quote ((nil (om-load-patch-abs1 "patch" (quote nil) (quote nil) 7.02 nil "" (om-make-point 200 200) (om-make-point 400 500))) ((7) (om-load-patch-abs1 "patch" (quote nil) (quote nil) 7.02 nil "" (om-make-point 200 200) (om-make-point 400 500)))))) (set-name newobj nil) (set-tonalite newobj nil) newobj) "x" nil (pairlis (quote (scale show-stems cursor-mode obj-mode score-mode winpos winsize mode grillestep notechancolor? zoom player inport outport deltapict cmnpref staff fontsize approx)) (list nil (quote t) (quote :normal) 1 0 (om-make-point 400 23) (om-make-point 631 282) 0 1000 nil 1 (quote :osc-scoreplayer) nil nil (om-make-point 0 0) (let ((newobj (make-instance (quote edition-values)))) (setf (paper-size newobj) (om-make-point 600 800)) (setf (top-margin newobj) 2) (setf (left-margin newobj) 1) (setf (right-margin newobj) 1) (setf (bottom-margin newobj) 1) (setf (orientation newobj) nil) (setf (scale newobj) nil) (setf (system-space newobj) (quote (1))) (setf (system-color newobj) (quote nil)) (setf (line-space newobj) 1) (setf (title newobj) nil) (setf (show-title? newobj) nil) (setf (show-page? newobj) nil) (setf (sheet-id newobj) nil) (setf (page-mode newobj) nil) newobj) (quote ggff) 24 2)) t nil nil nil (quote nil)))) (when (fboundp (quote set-active)) (set-active box nil)) box))) (quote ((12 1 1 0 nil 0) (15 1 2 0 nil 0) (7 0 6 1 nil 0) (13 0 7 0 nil 0) (9 0 7 1 nil 0) (11 0 10 1 nil 0) (13 0 11 0 nil 0) (9 0 11 1 nil 0) (15 1 11 2 nil 0) (13 0 12 1 nil 0) (15 1 13 0 nil 0))) nil 7.02))
